HIERARCHY
ROOT Hips
{
  OFFSET 0 0 0
  CHANNELS 6 Xposition Yposition Zposition Zrotation Yrotation Xrotation
  JOINT LeftThigh
  {
    OFFSET 8.409438 0 -5.917753
    CHANNELS 3 Zrotation Yrotation Xrotation
    JOINT LeftLeg
    {
      OFFSET 0 0 -42.358652
      CHANNELS 3 Zrotation Yrotation Xrotation
      JOINT LeftFoot
      {
        OFFSET 0 0 -39.357303
        CHANNELS 3 Zrotation Yrotation Xrotation
      }
    }
  }
  JOINT RightThigh
  {
    OFFSET -8.409438 0 -5.917753
    CHANNELS 3 Zrotation Yrotation Xrotation
    JOINT RightLeg
    {
      OFFSET 0 0 -42.358652
      CHANNELS 3 Zrotation Yrotation Xrotation
      JOINT RightFoot
      {
        OFFSET 0 0 -39.357303
        CHANNELS 3 Zrotation Yrotation Xrotation
      }
    }
  }
  JOINT SpineLow
  {
    OFFSET 0 0 4.719101
    CHANNELS 3 Zrotation Yrotation Xrotation
    JOINT SpineMid
    {
      OFFSET 0 0 12.899191
      CHANNELS 3 Zrotation Yrotation Xrotation
      JOINT Chest
      {
        OFFSET 0 0 12.899191
        CHANNELS 3 Zrotation Yrotation Xrotation
        JOINT LeftShoulder
        {
          OFFSET 7.550562 1.41573 9.438202
          CHANNELS 3 Zrotation Yrotation Xrotation
          JOINT LeftArm
          {
            OFFSET 9.155056 0 4.247191
            CHANNELS 3 Zrotation Yrotation Xrotation
            JOINT LeftForearm
            {
              OFFSET 0 0 25.771955
              CHANNELS 3 Zrotation Yrotation Xrotation
              JOINT LeftHand
              {
                OFFSET 0 0 25.197169
                CHANNELS 3 Zrotation Yrotation Xrotation
              }
            }
          }
        }
        JOINT RightShoulder
        {
          OFFSET -7.550562 1.41573 9.438202
          CHANNELS 3 Zrotation Yrotation Xrotation
          JOINT RightArm
          {
            OFFSET -9.155056 0 4.247191
            CHANNELS 3 Zrotation Yrotation Xrotation
            JOINT RightForearm
            {
              OFFSET 0 0 -25.771955
              CHANNELS 3 Zrotation Yrotation Xrotation
              JOINT RightHand
              {
                OFFSET 0 0 -25.197169
                CHANNELS 3 Zrotation Yrotation Xrotation
              }
            }
          }
        }
        JOINT Neck
        {
          OFFSET 0 0 15.101124
          CHANNELS 3 Zrotation Yrotation Xrotation
          JOINT Head
          {
            OFFSET 0 0 11.325843
            CHANNELS 3 Zrotation Yrotation Xrotation
            End Site
            {
              OFFSET 0 0 14.157303
            }
          }
        }
      }
    }
  }
}
MOTION
Frames: 9
Frame Time: 0.0
0.0  89.887642  0.0  -3.30689  -21.741107  -100.660973  7.673463  -23.30095  -0.978376  9.845177  5.792408  46.250628  3.514776  1.403781  1.195031  -6.357475  5.181343  -20.513245  10.920034  0.406031  46.271474  9.285673  2.258469  0.554953  0.790916  -2.028372  0.71837  2.105892  -5.56666  1.901033  2.105892  -5.566661  1.901033  -11.494117  31.22434  11.58261  113.471707  33.118437  161.087897  -11.246446  -17.166455  57.32427  87.034142  -4.770304  7.772333  -7.123795  15.176392  29.359198  39.903129  12.990199  8.518562  -8.017175  -1.065694  -61.086184  95.174241  -5.144287  -18.200309  9.003685  5.896013  10.800874  6.644743  4.583833  8.008452  
0.0  89.887642  0.0  -3.010409  -22.019288  -100.908437  7.811032  -22.481637  -1.527493  10.100597  5.079137  47.571528  3.111734  1.306804  1.252493  -6.81483  5.508638  -21.044615  11.462639  -0.111614  47.079497  9.421768  2.306429  0.497434  0.82003  -1.998832  0.60945  2.195483  -5.483202  1.601135  2.195483  -5.483203  1.601135  -10.896641  32.002948  13.390532  113.884468  34.714339  161.47183  -10.893305  -16.526328  56.689387  86.784534  -5.090644  8.146433  -7.384189  15.219998  30.362752  39.832418  12.881625  8.45565  -7.53586  -1.021109  -61.196671  96.862696  -4.922238  -18.319987  9.182016  5.844689  11.443036  6.77359  4.558371  8.489049  
0.0  89.887642  0.0  -2.651118  -22.195182  -100.950118  8.706685  -21.980523  -2.525723  9.629755  4.893882  48.700674  2.839712  1.305585  1.347681  -7.574504  5.921812  -21.860497  12.316171  -0.92741  47.832661  9.30538  2.391424  0.485804  0.860436  -1.943198  0.522526  2.314353  -5.329113  1.361528  2.314353  -5.329113  1.361528  -10.861891  32.475122  14.40054  114.932699  35.93122  162.183442  -10.454712  -16.070854  56.113604  86.618594  -5.301917  8.520416  -7.916836  15.136015  30.778742  40.154975  13.013387  8.595476  -7.146269  -1.593954  -61.330656  98.213592  -4.788573  -18.018322  9.255829  5.786918  11.842398  6.826543  4.522601  8.78876  
0.0  89.887642  0.0  -2.225419  -22.25527  -100.959099  10.02498  -21.536418  -3.433691  8.740971  4.99316  49.461914  2.579747  1.283877  1.332822  -8.034597  6.434387  -22.525101  12.548893  -1.371771  48.398671  9.191992  2.46214  0.47089  0.881737  -1.867233  0.518175  2.37432  -5.121777  1.350469  2.37432  -5.121776  1.350469  -11.182475  32.627422  14.728452  116.535464  36.926614  163.350051  -9.932775  -15.881809  55.664219  86.655285  -5.311834  8.907884  -8.557826  14.972681  30.465297  40.801888  13.40593  8.887741  -6.90515  -2.714041  -61.431228  99.230705  -4.724025  -17.553323  9.305913  5.79364  11.875144  6.863652  4.529139  8.812736  
0.0  89.887642  0.0  -1.825117  -22.079797  -100.929631  10.852835  -21.102479  -4.16177  7.875265  5.306782  49.918627  2.528444  1.376888  1.311441  -8.84664  6.866302  -23.068112  12.86532  -1.606327  48.805631  9.297173  2.501108  0.459942  0.798183  -1.801462  0.549841  2.144286  -4.941389  1.445685  2.144286  -4.941389  1.445685  -11.193607  32.664101  14.675002  118.461611  37.647935  164.75852  -9.322419  -15.839204  55.343799  86.766126  -5.167257  9.326559  -8.774738  14.881922  29.849618  41.60888  13.986691  9.186344  -6.900007  -4.09633  -61.361187  100.126351  -4.68784  -17.30284  9.582729  5.925186  11.762538  7.069355  4.631509  8.723414  
0.0  89.887642  0.0  -1.51879  -21.57914  -100.878582  11.070606  -20.789213  -4.784657  6.978278  5.952746  50.141655  2.791573  1.625311  1.368658  -9.71112  7.229868  -23.375031  13.014144  -1.592462  49.048318  9.332827  2.536326  0.399122  0.633775  -1.761643  0.563506  1.693924  -4.829389  1.496388  1.693924  -4.829389  1.496388  -11.084017  32.845651  14.576064  120.627558  38.20565  166.110042  -8.685234  -15.80537  55.213238  86.955782  -5.019287  9.78589  -8.773705  14.910002  29.325847  42.469194  14.640036  9.436511  -7.114804  -5.444633  -61.158719  101.134951  -4.581847  -17.257448  9.963689  6.149668  11.717323  7.3505  4.806663  8.681717  
0.0  89.887642  0.0  -1.291597  -20.798964  -100.793375  10.802233  -20.50996  -5.386831  6.273095  6.807186  50.147086  3.333459  1.857352  1.614247  -10.616293  7.511166  -23.489248  12.997119  -1.352164  49.165652  9.364862  2.564028  0.321052  0.452777  -1.726875  0.571806  1.198541  -4.730473  1.53295  1.198541  -4.730473  1.53295  -11.249016  33.021777  14.347528  122.784036  38.712419  167.33445  -8.149207  -15.60343  55.197715  87.134922  -4.873692  10.303584  -8.962024  14.914322  28.771352  43.278535  15.329184  9.623863  -7.445852  -6.675493  -60.91501  102.267668  -4.39901  -17.263154  10.239196  6.375874  11.661253  7.55264  4.980832  8.632599  
0.0  89.887642  0.0  -1.144  -19.640946  -100.709704  10.068627  -20.218499  -6.009035  5.780602  7.540884  50.078459  3.805388  2.026352  1.879747  -11.497484  7.835135  -23.286561  12.806154  -0.940769  49.003872  9.464414  2.633858  0.261694  0.255915  -1.697113  0.565944  0.660708  -4.644536  1.531271  0.660708  -4.644537  1.531271  -11.760624  33.274531  14.032854  124.781601  39.119161  168.32323  -7.753595  -15.291097  55.227648  87.198986  -4.688605  10.891263  -9.385835  14.930491  28.226064  43.883197  15.973011  9.782271  -7.681463  -7.534557  -60.799725  103.137775  -4.204315  -17.117122  10.341836  6.58374  11.650196  7.625142  5.13863  8.619135  
0.0  89.887642  0.0  -1.063614  -18.057659  -100.667683  9.336458  -19.928373  -6.735223  5.22537  7.99839  50.034766  4.0105  2.146086  2.09012  -11.947503  8.236679  -22.640211  12.153946  -0.348969  48.566504  9.56932  2.654867  0.187532  0.033453  -1.67464  0.584579  0.050978  -4.577963  1.597923  0.050978  -4.577963  1.597923  -12.796479  33.678529  13.427376  126.580595  39.489621  169.046319  -7.484064  -15.025785  55.211749  87.196759  -4.444495  11.557174  -10.024989  14.955903  27.495861  44.230535  16.565851  9.916708  -7.740676  -7.807935  -61.018823  103.405551  -4.048413  -16.706538  10.272972  6.820776  11.570786  7.569172  5.313817  8.55559  
